<svg width="40" height="40" viewBox="0 0 40 40" fill="none" xmlns="http://www.w3.org/2000/svg">
  <ellipse cx="20" cy="20.0466" rx="17.5729" ry="17.5729" fill="url(#paint0_linear_413_19355)"/>
  <path fill-rule="evenodd" clip-rule="evenodd" d="M19.9999 37.2655C29.5913 37.2655 37.3655 29.5124 37.3655 19.9499C37.3655 10.3874 29.5913 2.63428 19.9999 2.63428C10.4085 2.63428 2.63428 10.3874 2.63428 19.9499C2.63428 29.5124 10.4085 37.2655 19.9999 37.2655ZM19.9999 37.4999C29.7201 37.4999 37.5999 29.6425 37.5999 19.9499C37.5999 10.2573 29.7201 2.3999 19.9999 2.3999C10.2797 2.3999 2.3999 10.2573 2.3999 19.9499C2.3999 29.6425 10.2797 37.4999 19.9999 37.4999Z" fill="url(#paint1_linear_413_19355)"/>
  <path fill-rule="evenodd" clip-rule="evenodd" d="M39.7651 19.9766C39.7651 30.9056 30.9054 39.7653 19.9764 39.7653C9.04748 39.7653 0.187805 30.9056 0.187805 19.9766C0.187805 9.04766 9.04748 0.187988 19.9764 0.187988C30.9054 0.187988 39.7651 9.04766 39.7651 19.9766ZM19.9764 37.4795C29.643 37.4795 37.4794 29.6432 37.4794 19.9766C37.4794 10.31 29.643 2.4737 19.9764 2.4737C10.3098 2.4737 2.47352 10.31 2.47352 19.9766C2.47352 29.6432 10.3098 37.4795 19.9764 37.4795Z" fill="#F7B636"/>
  <path fill-rule="evenodd" clip-rule="evenodd" d="M39.8437 19.9609C39.8437 30.8988 30.9594 39.7656 20 39.7656C9.0406 39.7656 0.15625 30.8988 0.15625 19.9609C0.15625 9.02311 9.0406 0.15625 20 0.15625C30.9594 0.15625 39.8437 9.02311 39.8437 19.9609ZM20 39.6736C30.9085 39.6736 39.7516 30.848 39.7516 19.9609C39.7516 9.07392 30.9085 0.248258 20 0.248258C9.09151 0.248258 0.248439 9.07392 0.248439 19.9609C0.248439 30.848 9.09151 39.6736 20 39.6736Z" fill="url(#paint2_linear_413_19355)"/>
  <g filter="url(#filter0_d_413_19355)">
    <path d="M8.9849 18.2264C8.95415 18.065 8.84487 17.7829 8.63484 17.9463C7.83932 18.5651 7.44466 19.2299 7.00123 20.21C6.75976 20.7438 7.14128 21.8903 6.86121 21.7036C6.73207 21.6175 6.68486 21.533 6.6045 21.4002C6.3772 21.0247 6.64786 20.6972 6.51115 20.28C6.30901 19.6632 6.16104 19.3885 5.50765 18.9965C5.39097 18.9265 5.28599 19.1752 5.25092 19.2999C5.04088 20.0467 4.77753 20.5343 5.04091 21.3069C5.39097 22.3337 5.64767 22.9638 6.51115 23.5706C6.70858 23.7093 6.89323 23.5993 7.11792 23.6873C7.7799 23.9465 7.74803 25.0175 8.19143 25.1575C8.34519 25.2061 8.57765 24.9755 8.47148 24.8541C8.14476 24.4807 7.78919 23.7738 7.81804 23.0105C7.8602 21.8946 8.84788 21.4474 8.9849 20.28C9.08051 19.4654 9.07827 18.7164 8.9849 18.2264Z" fill="#F7B636"/>
    <path d="M18.5082 6.27806C18.5977 6.12362 18.6644 6.07975 18.4412 6.01632C18.2179 5.9529 15.4881 5.96078 14.7728 6.69776C14.1115 7.37909 13.7739 7.79338 13.6912 7.9116C13.6805 7.92685 13.6718 7.9429 13.6646 7.96005C13.6455 8.00536 13.6111 8.10153 13.6292 8.16801C13.7241 8.42258 14.7961 7.95797 16.033 7.95797C17.2699 7.95797 18.4186 6.4325 18.5082 6.27806Z" fill="#F7B636"/>
    <path d="M6.69767 24.9709C6.55765 24.9709 6.40998 24.9485 6.4466 25.2187C6.46615 25.3628 6.59895 26.6159 7.11778 27.4913C7.57122 28.2563 8.30799 29.19 8.8447 29.2182C9.38142 29.2465 10.245 29.0548 10.4083 29.0315C10.5717 29.0082 11.0467 29.1 11.1318 29.0315C11.3613 28.8098 10.196 28.2628 9.61483 26.9312C9.34995 26.3243 8.80614 25.6672 8.21459 25.3676C7.50824 25.0099 6.83769 24.9709 6.69767 24.9709Z" fill="#F7B636"/>
    <path d="M12.9028 26.9489C12.7796 26.9341 12.652 26.8988 12.6557 27.1404C12.6577 27.2693 12.6424 28.3858 13.0065 29.2107C13.3247 29.9316 13.7263 30.5836 14.1955 30.6651C14.6648 30.7466 15.6593 30.4784 16.0794 30.5484C16.4995 30.6184 16.4641 30.5063 16.5462 30.4551C16.7715 30.2842 15.7268 30.0077 15.356 28.7748C15.1869 28.2129 14.5613 27.9339 14.0724 27.6079C13.4887 27.2187 13.026 26.9637 12.9028 26.9489Z" fill="#F7B636"/>
    <path d="M13.9089 32.2986C13.8216 32.2384 13.6324 32.1482 13.7689 31.9952C13.8417 31.9136 14.594 31.1095 15.2858 30.786C15.8692 30.5484 16.616 30.6884 16.8727 30.9451C17.1294 31.2018 18.0162 31.4118 18.3896 31.5985C18.6451 31.7262 18.6603 31.8758 18.607 32.0099C18.5587 32.1313 18.4267 32.202 18.3342 32.1097C18.2383 32.0139 18.1211 31.8685 17.8995 31.8786C17.4539 31.8989 16.8943 32.2095 16.3826 32.532C15.9621 32.7971 15.4498 32.7459 14.9549 32.6786C14.3639 32.5983 13.9962 32.3588 13.9089 32.2986Z" fill="#F7B636"/>
    <path d="M9.69045 30.2817C9.63381 30.1897 9.55837 30.1012 9.76289 30.0233C9.87204 29.9817 11.0076 29.5578 11.8321 29.5682C12.5528 29.5772 12.7423 29.8715 13.0456 30.1749C13.349 30.4783 13.7228 30.8714 13.9324 31.1784C14.1421 31.4854 13.8391 31.5938 13.7458 31.6218C13.5124 31.6918 12.6256 31.8785 12.0188 31.8319C11.412 31.7852 10.992 31.3885 10.5719 31.0384C10.0678 30.6183 9.74709 30.3736 9.69045 30.2817Z" fill="#F7B636"/>
    <path d="M17.5965 8.44809C17.7656 8.53083 17.8814 8.60672 17.7805 8.79648C17.6797 8.98624 15.9862 10.3851 14.8427 10.3851C13.859 10.3851 13.4896 10.1208 13.3525 10.0217C13.3199 9.99813 13.2858 9.97692 13.2542 9.9519C13.2018 9.91027 13.1212 9.84001 13.0899 9.77895C12.97 9.49731 13.4191 9.09242 14.3293 8.52521C15.2394 7.95801 17.4274 8.36536 17.5965 8.44809Z" fill="#F7B636"/>
    <path d="M9.2186 10.3618C9.13957 10.2116 8.96181 10.1457 8.79373 10.2612C8.62564 10.3767 7.19464 12.086 7.42158 12.9989C7.63252 13.8473 7.8061 14.4508 7.85997 14.5912C7.86623 14.6076 7.87459 14.6226 7.88451 14.637C7.91129 14.6759 7.9719 14.7555 8.03577 14.7817C8.29252 14.864 8.54187 14.3524 9.05523 13.4656C9.5686 12.5788 9.29762 10.5119 9.2186 10.3618Z" fill="#F7B636"/>
    <path d="M11.8925 13.05C11.9159 12.8819 11.8557 12.6721 11.5523 12.6721C11.3963 12.6721 10.7428 12.7129 10.012 13.1389C9.3215 13.5413 8.75176 14.189 8.42507 14.6791C8.09838 15.1692 8.32755 15.6344 8.31506 15.7167C8.30257 15.799 8.51593 16.2808 8.56507 16.3594C8.72547 16.5761 9.55153 15.6617 10.5254 15.1225C11.4993 14.5834 11.869 13.2181 11.8925 13.05Z" fill="#F7B636"/>
    <path d="M10.8526 9.24155C11.0299 8.83874 11.6132 8.00007 12.6261 7.68935C12.8777 7.61219 13.2338 7.61331 13.3094 7.68934C13.385 7.76537 12.8215 9.95882 12.761 10.0403C12.6762 10.2362 12.1987 11.3895 11.7158 11.3186C11.4892 11.2853 11.021 11.2533 10.7138 11.5753C10.3665 11.9392 10.082 12.4388 9.98672 12.5871C9.89743 12.7026 9.77863 12.5321 9.73214 12.4621C9.6386 12.3221 9.69831 11.8183 10.1292 11.4353C10.5492 11.0619 10.789 10.5342 10.7138 10.1284C10.6766 9.92757 10.6752 9.64436 10.8526 9.24155Z" fill="#F7B636"/>
    <path d="M5.91021 16.4209C5.84099 15.9863 5.75821 14.2989 6.44119 13.4889C6.61078 13.2877 6.83801 13.2789 6.88456 13.3022C6.9311 13.3255 7.28032 13.8301 7.51453 14.4457C7.78858 15.166 7.9506 16.0035 7.94694 16.0581C7.98182 16.2687 8.2055 17.4968 7.76123 17.6988C7.55271 17.7936 7.43494 18.2094 7.35122 18.6464C7.25658 19.1405 7.09446 19.6966 7.05816 19.86C7.04567 20.0054 6.83414 19.9683 6.75714 19.9346C6.60265 19.8676 6.70652 19.4352 6.86109 18.8798C7.01177 18.3384 6.74751 17.7099 6.46436 17.4095C6.32427 17.2609 5.97943 16.8556 5.91021 16.4209Z" fill="#F7B636"/>
    <path d="M10.1749 23.5239C10.2692 23.1305 10.396 21.6992 9.87157 20.6301C9.75414 20.3907 9.63324 20.3389 9.58707 20.3518C9.54091 20.3648 9.05791 20.9735 8.79806 21.4236C8.52045 21.9045 8.23796 22.6787 8.23796 22.7305C8.12862 23.063 8.02793 23.664 8.37799 24.2941C8.72806 24.9242 8.6862 24.9037 8.86807 25.2742C9.03894 25.6223 9.21813 25.951 9.35816 26.1377C9.4138 26.2119 9.49454 26.1825 9.56011 26.1316C9.63856 26.0705 9.67442 25.9669 9.64252 25.8728C9.59329 25.7276 9.46811 25.5762 9.38149 25.4376C9.09088 24.9726 9.49818 24.7608 9.6382 24.5975C9.75701 24.4588 10.0806 23.9174 10.1749 23.5239Z" fill="#F7B636"/>
    <path d="M11.9057 26.8817C11.8895 26.4775 11.6223 25.0657 10.827 24.1794C10.6489 23.981 10.5185 23.964 10.4776 23.989C10.4367 24.014 10.1374 24.7311 10.0097 25.2349C9.87327 25.7731 9.81192 26.595 9.826 26.6448C9.8112 26.9946 10.0168 27.5168 10.525 28.028C11.0332 28.5392 11.0726 28.4962 11.2718 28.8448C11.4585 29.1715 11.4351 29.1715 11.5519 29.3349C11.6027 29.406 11.6764 29.3937 11.7355 29.3551C11.8187 29.3009 11.8265 29.1898 11.8003 29.0939C11.7763 29.0064 11.7443 28.9378 11.6919 28.7981C11.6219 28.6114 11.5782 28.3067 11.6685 28.1114C11.7452 27.9457 11.9219 27.286 11.9057 26.8817Z" fill="#F7B636"/>
    <path d="M30.8176 18.2264C30.8483 18.065 30.9576 17.783 31.1677 17.9463C31.9632 18.5651 32.3578 19.2299 32.8013 20.2101C33.0427 20.7438 32.6612 21.8903 32.9413 21.7036C33.0704 21.6176 33.1176 21.533 33.198 21.4003C33.4253 21.0247 33.1546 20.6972 33.2913 20.2801C33.4935 19.6633 33.6415 19.3885 34.2948 18.9965C34.4115 18.9265 34.5165 19.1752 34.5516 19.2999C34.7616 20.0467 35.025 20.5343 34.7616 21.3069C34.4115 22.3337 34.1548 22.9638 33.2913 23.5706C33.0939 23.7093 32.9093 23.5993 32.6846 23.6873C32.0226 23.9466 32.0545 25.0175 31.6111 25.1575C31.4573 25.2061 31.2248 24.9755 31.331 24.8542C31.6577 24.4808 32.0133 23.7738 31.9845 23.0105C31.9423 21.8946 30.9546 21.4475 30.8176 20.2801C30.722 19.4654 30.7242 18.7165 30.8176 18.2264Z" fill="#F7B636"/>
    <path d="M21.2943 6.27806C21.2048 6.12362 21.1381 6.07975 21.3613 6.01632C21.5846 5.9529 24.3144 5.96078 25.0297 6.69776C25.691 7.37909 26.0286 7.79338 26.1113 7.9116C26.122 7.92685 26.1307 7.9429 26.1379 7.96005C26.157 8.00536 26.1914 8.10153 26.1733 8.16801C26.0784 8.42258 25.0064 7.95797 23.7695 7.95797C22.5326 7.95797 21.3839 6.4325 21.2943 6.27806Z" fill="#F7B636"/>
    <path d="M33.1047 24.9708C33.2447 24.9708 33.3924 24.9485 33.3557 25.2186C33.3362 25.3628 33.2034 26.6159 32.6846 27.4912C32.2311 28.2563 31.4944 29.1899 30.9576 29.2182C30.4209 29.2464 29.5574 29.0548 29.394 29.0315C29.2307 29.0082 28.7556 29.0999 28.6706 29.0315C28.4411 28.8097 29.6063 28.2627 30.1875 26.9311C30.4524 26.3242 30.9962 25.6671 31.5878 25.3676C32.2941 25.0099 32.9647 24.9708 33.1047 24.9708Z" fill="#F7B636"/>
    <path d="M26.8997 26.9489C27.0229 26.9341 27.1505 26.8988 27.1468 27.1404C27.1448 27.2693 27.1601 28.3858 26.796 29.2107C26.4778 29.9316 26.0762 30.5836 25.607 30.6651C25.1377 30.7466 24.1432 30.4784 23.7231 30.5484C23.303 30.6184 23.3384 30.5063 23.2563 30.4551C23.031 30.2842 24.0757 30.0077 24.4465 28.7748C24.6155 28.2129 25.2412 27.9339 25.7301 27.6079C26.3138 27.2187 26.7765 26.9636 26.8997 26.9489Z" fill="#F7B636"/>
    <path d="M25.8935 32.2987C25.9808 32.2385 26.17 32.1483 26.0335 31.9953C25.9606 31.9137 25.2083 31.1096 24.5165 30.7861C23.9331 30.5484 23.1863 30.6884 22.9296 30.9452C22.6729 31.2019 21.7861 31.4119 21.4127 31.5986C21.1573 31.7263 21.1421 31.8759 21.1954 32.0099C21.2436 32.1314 21.3757 32.2021 21.4682 32.1097C21.5641 32.014 21.6812 31.8685 21.9028 31.8786C22.3485 31.899 22.9081 32.2096 23.4197 32.5321C23.8402 32.7971 24.3526 32.7459 24.8475 32.6787C25.4384 32.5983 25.8061 32.3589 25.8935 32.2987Z" fill="#F7B636"/>
    <path d="M30.1122 30.2818C30.1689 30.1898 30.2443 30.1013 30.0398 30.0234C29.9307 29.9818 28.7951 29.5579 27.9706 29.5682C27.2499 29.5773 27.0604 29.8716 26.7571 30.175C26.4537 30.4784 26.0799 30.8715 25.8702 31.1785C25.6606 31.4855 25.9636 31.5939 26.0569 31.6219C26.2903 31.6919 27.1771 31.8786 27.7839 31.8319C28.3907 31.7853 28.8107 31.3885 29.2308 31.0385C29.7349 30.6184 30.0556 30.3737 30.1122 30.2818Z" fill="#F7B636"/>
    <path d="M22.2058 8.44809C22.0367 8.53083 21.9209 8.60672 22.0218 8.79648C22.1226 8.98624 23.8161 10.3851 24.9596 10.3851C25.9433 10.3851 26.3127 10.1208 26.4498 10.0217C26.4825 9.99813 26.5166 9.97692 26.5481 9.9519C26.6005 9.91027 26.6811 9.84001 26.7124 9.77895C26.8323 9.49731 26.3832 9.09242 25.473 8.52521C24.5629 7.95801 22.3749 8.36536 22.2058 8.44809Z" fill="#F7B636"/>
    <path d="M30.5839 10.3617C30.6629 10.2116 30.8407 10.1457 31.0088 10.2612C31.1768 10.3767 32.6078 12.086 32.3809 12.9988C32.17 13.8473 31.9964 14.4508 31.9425 14.5912C31.9363 14.6075 31.9279 14.6226 31.918 14.637C31.8912 14.6759 31.8306 14.7555 31.7667 14.7816C31.51 14.864 31.2606 14.3524 30.7473 13.4656C30.2339 12.5788 30.5049 10.5119 30.5839 10.3617Z" fill="#F7B636"/>
    <path d="M27.9101 13.05C27.8866 12.8819 27.9469 12.6721 28.2503 12.6721C28.4063 12.6721 29.0597 12.7129 29.7905 13.1389C30.481 13.5413 31.0508 14.189 31.3775 14.6791C31.7042 15.1692 31.475 15.6344 31.4875 15.7167C31.5 15.799 31.2866 16.2808 31.2375 16.3594C31.0771 16.5761 30.251 15.6617 29.2771 15.1225C28.3033 14.5834 27.9336 13.2181 27.9101 13.05Z" fill="#F7B636"/>
    <path d="M28.9499 9.24154C28.7726 8.83873 28.1893 8.00006 27.1764 7.68934C26.9248 7.61218 26.5687 7.6133 26.4931 7.68933C26.4175 7.76536 26.981 9.95881 27.0415 10.0402C27.1263 10.2362 27.6038 11.3895 28.0867 11.3186C28.3133 11.2853 28.7815 11.2533 29.0887 11.5753C29.436 11.9392 29.7205 12.4387 29.8158 12.5871C29.9051 12.7026 30.0239 12.5321 30.0704 12.4621C30.1639 12.3221 30.1042 11.8183 29.6733 11.4352C29.2533 11.0618 29.0135 10.5342 29.0887 10.1284C29.1259 9.92756 29.1273 9.64435 28.9499 9.24154Z" fill="#F7B636"/>
    <path d="M33.8923 16.4209C33.9615 15.9863 34.0443 14.2989 33.3613 13.4889C33.1917 13.2878 32.9645 13.2789 32.9179 13.3022C32.8714 13.3255 32.5222 13.8301 32.288 14.4457C32.0139 15.1661 31.8519 16.0035 31.8555 16.0581C31.8207 16.2687 31.597 17.4968 32.0413 17.6988C32.2498 17.7936 32.3675 18.2094 32.4513 18.6464C32.5459 19.1405 32.708 19.6966 32.7443 19.86C32.7568 20.0054 32.9683 19.9683 33.0453 19.9346C33.1998 19.8676 33.096 19.4352 32.9414 18.8798C32.7907 18.3384 33.055 17.7099 33.3381 17.4095C33.4782 17.261 33.8231 16.8556 33.8923 16.4209Z" fill="#F7B636"/>
    <path d="M29.6275 23.5239C29.5332 23.1305 29.4065 21.6992 29.9309 20.6301C30.0483 20.3907 30.1692 20.3389 30.2154 20.3518C30.2615 20.3647 30.7445 20.9734 31.0044 21.4235C31.282 21.9044 31.5645 22.6786 31.5645 22.7304C31.6738 23.063 31.7745 23.6639 31.4244 24.294C31.0744 24.9241 31.1162 24.9037 30.9344 25.2742C30.7635 25.6222 30.5843 25.951 30.4443 26.1377C30.3886 26.2119 30.3079 26.1825 30.2423 26.1315C30.1639 26.0705 30.128 25.9669 30.1599 25.8728C30.2091 25.7276 30.3343 25.5761 30.4209 25.4375C30.7116 24.9726 30.3043 24.7608 30.1642 24.5974C30.0454 24.4588 29.7218 23.9173 29.6275 23.5239Z" fill="#F7B636"/>
    <path d="M27.8967 26.8818C27.9129 26.4775 28.1801 25.0657 28.9754 24.1794C29.1535 23.981 29.2839 23.964 29.3249 23.989C29.3658 24.014 29.6651 24.7311 29.7928 25.2349C29.9292 25.7731 29.9905 26.595 29.9764 26.6448C29.9912 26.9946 29.7856 27.5168 29.2774 28.028C28.7692 28.5392 28.7298 28.4962 28.5306 28.8448C28.3439 29.1715 28.3673 29.1715 28.2506 29.3349C28.1998 29.406 28.1261 29.3937 28.0669 29.3551C27.9837 29.3009 27.9759 29.1898 28.0022 29.0939C28.0262 29.0064 28.0582 28.9378 28.1106 28.7981C28.1806 28.6114 28.2242 28.3067 28.1339 28.1114C28.0573 27.9457 27.8805 27.286 27.8967 26.8818Z" fill="#F7B636"/>
    <path d="M19.16 32.1354C19.0901 32.0654 18.7167 32.2521 18.9034 32.3688C19.0273 32.4462 20.3969 33.2556 21.307 33.8624C21.7738 34.1736 22.2075 34.3159 22.3339 34.3291C22.7103 34.3686 23.1767 33.8371 22.964 33.6523C22.8674 33.5685 22.3247 33.5555 21.7738 33.419C21.1113 33.2547 20.4569 32.9522 20.537 32.8589C20.617 32.7655 20.8637 32.5788 20.9103 32.5088C20.957 32.4388 20.9103 32.3221 20.747 32.2988C20.5836 32.2754 20.2847 32.6206 19.9535 32.6022C19.5696 32.5808 19.23 32.2054 19.16 32.1354Z" fill="#F7B636"/>
    <path d="M19.5566 32.9989C19.2645 33.0573 17.2602 33.5671 16.8961 33.629C16.5321 33.6909 17.2462 34.5158 17.6663 34.3758C18.2958 34.166 19.379 33.419 19.6033 33.3023C19.8275 33.1856 19.6733 32.9756 19.5566 32.9989Z" fill="#F7B636"/>
  </g>
  <defs>
    <filter id="filter0_d_413_19355" x="4.93042" y="5.99182" width="29.9417" height="28.5999" filterUnits="userSpaceOnUse" color-interpolation-filters="sRGB">
      <feFlood flood-opacity="0" result="BackgroundImageFix"/>
      <feColorMatrix in="SourceAlpha" type="matrix" values="0 0 0 0 0 0 0 0 0 0 0 0 0 0 0 0 0 0 127 0" result="hardAlpha"/>
      <feOffset dy="0.2"/>
      <feColorMatrix type="matrix" values="0 0 0 0 0 0 0 0 0 0 0 0 0 0 0 0 0 0 0.25 0"/>
      <feBlend mode="normal" in2="BackgroundImageFix" result="effect1_dropShadow_413_19355"/>
      <feBlend mode="normal" in="SourceGraphic" in2="effect1_dropShadow_413_19355" result="shape"/>
    </filter>
    <linearGradient id="paint0_linear_413_19355" x1="20" y1="2.47363" x2="20" y2="37.6195" gradientUnits="userSpaceOnUse">
      <stop stop-color="#1930AD"/>
      <stop offset="1" stop-color="#131F60"/>
    </linearGradient>
    <linearGradient id="paint1_linear_413_19355" x1="19.9999" y1="37.4999" x2="19.9999" y2="2.3999" gradientUnits="userSpaceOnUse">
      <stop stop-color="#FFE091"/>
      <stop offset="0.572917" stop-color="#FFB21D"/>
      <stop offset="0.958333" stop-color="#E58D0F"/>
    </linearGradient>
    <linearGradient id="paint2_linear_413_19355" x1="20" y1="0.248258" x2="20" y2="39.6736" gradientUnits="userSpaceOnUse">
      <stop stop-color="#FFD875"/>
      <stop offset="0.0926476" stop-color="#FFCC60"/>
      <stop offset="0.170565" stop-color="#FFCC60"/>
      <stop offset="0.248554" stop-color="#FFCC60"/>
      <stop offset="0.306783" stop-color="#FFCC60"/>
      <stop offset="0.350835" stop-color="#FFCC60"/>
      <stop offset="0.413482" stop-color="#FAB427"/>
      <stop offset="0.508091" stop-color="#F9AB15"/>
      <stop offset="0.958333" stop-color="#C77500"/>
    </linearGradient>
  </defs>
</svg>
